<svg width="133" height="56" viewBox="0 0 133 56" fill="none" xmlns="http://www.w3.org/2000/svg">
<rect x="0.20752" width="132.075" height="56" rx="10" fill="white"/>
<path d="M36.8377 28.3598C36.8377 25.9133 38.8255 24.69 38.9784 24.6136C37.8316 22.9316 35.9967 22.7022 35.3851 22.7022C33.856 22.5493 32.4034 23.6197 31.6389 23.6197C30.8743 23.6197 29.6511 22.7022 28.4278 22.7787C26.8223 22.7787 25.2932 23.7726 24.4522 25.2252C22.6938 28.2069 23.9935 32.6412 25.6755 35.0877C26.5165 36.311 27.5104 37.6107 28.7336 37.5343C29.9569 37.4578 30.4156 36.7697 31.9447 36.7697C33.3973 36.7697 33.856 37.5343 35.1558 37.5343C36.4555 37.5343 37.2965 36.311 38.1375 35.1642C39.1314 33.788 39.5136 32.4883 39.5136 32.4118C39.4372 32.2589 36.9142 31.265 36.8377 28.3598Z" fill="#1D1E2C"/>
<path d="M34.3895 21.097C35.0775 20.256 35.5363 19.1092 35.3834 17.9624C34.3895 18.0389 33.2427 18.6505 32.4781 19.415C31.8665 20.1031 31.3313 21.3264 31.4842 22.3967C32.631 22.5496 33.7014 21.938 34.3895 21.097Z" fill="#1D1E2C"/>
<path d="M57.5616 37.1444H55.8328L54.9309 34.2131H51.699L50.797 37.1444H49.1435L52.3754 27.1479H54.3296L57.5616 37.1444ZM54.7054 33.0105L53.8787 30.3799C53.8035 30.0792 53.6532 29.4779 53.3525 28.5009C53.2774 28.9518 53.127 29.5531 52.9016 30.3799L51.9996 33.0105H54.7054Z" fill="#575A65"/>
<path d="M65.9026 33.4615C65.9026 34.6641 65.602 35.6411 64.9255 36.3928C64.3242 36.9941 63.5726 37.3699 62.7458 37.3699C61.7687 37.3699 61.0923 36.9941 60.7165 36.3176V40.1508H59.1381V32.334C59.1381 31.5824 59.1381 30.7557 59.0629 29.9289H60.491L60.5662 31.0563C61.0923 30.2295 61.9191 29.7786 62.9713 29.7786C63.7981 29.7786 64.5497 30.0792 65.0758 30.7557C65.602 31.4321 65.9026 32.334 65.9026 33.4615ZM64.2491 33.5366C64.2491 32.8602 64.0987 32.2589 63.7981 31.8079C63.4223 31.357 62.9713 31.1315 62.37 31.1315C61.9942 31.1315 61.6184 31.2818 61.3178 31.5073C61.0171 31.8079 60.7916 32.1086 60.7165 32.5595C60.6413 32.785 60.6413 32.9353 60.6413 33.0105V34.2131C60.6413 34.7392 60.7916 35.1902 61.0923 35.566C61.3929 35.9418 61.8439 36.0921 62.37 36.0921C62.9713 36.0921 63.4223 35.8666 63.7981 35.4157C64.0987 34.8895 64.2491 34.2882 64.2491 33.5366Z" fill="#575A65"/>
<path d="M74.1715 33.4615C74.1715 34.6641 73.8708 35.6411 73.1944 36.3928C72.5931 36.9941 71.8415 37.3699 71.0147 37.3699C70.0376 37.3699 69.3611 36.9941 68.9853 36.3176V40.1508H67.4069V32.334C67.4069 31.5824 67.4069 30.7557 67.3318 29.9289H68.7599L68.835 31.0563C69.3611 30.2295 70.1879 29.7786 71.2402 29.7786C72.067 29.7786 72.8186 30.0792 73.3447 30.7557C73.8708 31.4321 74.1715 32.334 74.1715 33.4615ZM72.5179 33.5366C72.5179 32.8602 72.3676 32.2589 72.067 31.8079C71.6911 31.357 71.2402 31.1315 70.6389 31.1315C70.2631 31.1315 69.8873 31.2818 69.5866 31.5073C69.286 31.8079 69.0605 32.1086 68.9853 32.5595C68.9102 32.785 68.9102 32.9353 68.9102 33.0105V34.2131C68.9102 34.7392 69.0605 35.1902 69.3611 35.566C69.6618 35.9418 70.1128 36.0921 70.6389 36.0921C71.2402 36.0921 71.6911 35.8666 72.067 35.4157C72.3676 34.8895 72.5179 34.2882 72.5179 33.5366Z" fill="#575A65"/>
<path d="M83.414 34.3629C83.414 35.1897 83.1134 35.9413 82.5121 36.4675C81.8356 37.0688 80.9337 37.3694 79.8063 37.3694C78.754 37.3694 77.8521 37.1439 77.2508 36.7681L77.6266 35.4152C78.3031 35.8662 79.1298 36.0917 79.9566 36.0917C80.5579 36.0917 81.0089 35.9413 81.3847 35.7159C81.6853 35.4152 81.9108 35.1146 81.9108 34.5884C81.9108 34.2126 81.7605 33.8368 81.4598 33.5362C81.1592 33.2355 80.7082 33.01 80.1069 32.7846C78.3782 32.1081 77.4763 31.2062 77.4763 29.9284C77.4763 29.1017 77.7769 28.4252 78.3782 27.8991C78.9795 27.3729 79.8063 27.1475 80.8585 27.1475C81.7605 27.1475 82.5121 27.2978 83.1134 27.5984L82.6624 28.801C82.0611 28.5004 81.4598 28.35 80.7834 28.35C80.1821 28.35 79.8063 28.5004 79.4305 28.801C79.1298 29.0265 79.0547 29.3271 79.0547 29.7029C79.0547 30.0788 79.205 30.4546 79.5056 30.68C79.8063 30.9055 80.2572 31.2062 80.9337 31.4317C81.7605 31.8075 82.4369 32.1833 82.8127 32.6342C83.2637 33.0852 83.414 33.6865 83.414 34.3629Z" fill="#575A65"/>
<path d="M88.7523 31.1312H87.0236V34.6638C87.0236 35.5657 87.3243 36.0167 87.9256 36.0167C88.2262 36.0167 88.4517 36.0167 88.602 35.9415L88.6772 37.1441C88.3765 37.2944 87.9256 37.2944 87.3994 37.2944C86.7981 37.2944 86.272 37.069 85.8962 36.6931C85.5204 36.3173 85.3701 35.6409 85.3701 34.739V31.1312H84.3178V29.9286H85.3701V28.5757L86.9485 28.1248V29.9286H88.6772C88.7523 29.9286 88.7523 31.1312 88.7523 31.1312Z" fill="#575A65"/>
<path d="M96.7202 33.4615C96.7202 34.5889 96.4196 35.4908 95.7431 36.1673C95.0667 36.9189 94.1647 37.2947 93.1125 37.2947C92.0602 37.2947 91.2334 36.9189 90.557 36.2424C89.8805 35.566 89.5799 34.664 89.5799 33.6118C89.5799 32.4844 89.8805 31.5824 90.557 30.8308C91.2334 30.1544 92.0602 29.7786 93.1876 29.7786C94.2399 29.7786 95.0667 30.1544 95.7431 30.8308C96.4196 31.5073 96.7202 32.4092 96.7202 33.4615ZM95.0667 33.5366C95.0667 32.8602 94.9164 32.334 94.6157 31.8079C94.3151 31.2066 93.7889 30.9811 93.1876 30.9811C92.5112 30.9811 92.0602 31.2818 91.6844 31.8079C91.3838 32.2589 91.2334 32.8602 91.2334 33.5366C91.2334 34.2131 91.3838 34.7392 91.6844 35.2653C92.0602 35.8666 92.5112 36.0921 93.1125 36.0921C93.7138 36.0921 94.2399 35.7915 94.5405 35.1902C94.9164 34.7392 95.0667 34.2131 95.0667 33.5366Z" fill="#575A65"/>
<path d="M101.907 31.357C101.757 31.357 101.607 31.2818 101.381 31.2818C100.78 31.2818 100.404 31.5073 100.104 31.9582C99.8029 32.334 99.7277 32.785 99.7277 33.3863V37.1444H98.1493V32.1837C98.1493 31.357 98.1493 30.6053 98.0742 29.9289H99.5022L99.5774 31.2818H99.6525C99.8029 30.8308 100.104 30.455 100.479 30.1544C100.855 29.9289 101.231 29.7786 101.607 29.7786C101.757 29.7786 101.907 29.7786 101.983 29.7786C101.907 29.8537 101.907 31.357 101.907 31.357Z" fill="#575A65"/>
<path d="M109.12 33.2358C109.12 33.5365 109.12 33.7619 109.045 33.9874H104.235C104.235 34.6639 104.46 35.2652 104.911 35.641C105.287 35.9416 105.813 36.1671 106.49 36.1671C107.166 36.1671 107.843 36.0168 108.444 35.7913L108.67 36.9187C107.993 37.2194 107.166 37.3697 106.264 37.3697C105.137 37.3697 104.235 37.069 103.634 36.3926C103.032 35.7161 102.657 34.8894 102.657 33.7619C102.657 32.7097 102.957 31.7326 103.559 31.0561C104.16 30.3045 104.987 29.9287 106.114 29.9287C107.166 29.9287 107.918 30.3045 108.444 31.0561C108.895 31.5071 109.12 32.3339 109.12 33.2358ZM107.542 32.7848C107.542 32.3339 107.467 31.8829 107.241 31.5823C106.941 31.1313 106.565 30.9058 105.964 30.9058C105.438 30.9058 104.987 31.1313 104.686 31.5823C104.385 31.9581 104.235 32.3339 104.235 32.86L107.542 32.7848Z" fill="#575A65"/>
<path d="M53.2048 20.985C53.2048 21.887 52.9042 22.5634 52.3781 23.0144C51.8519 23.3902 51.1755 23.6157 50.2735 23.6157C49.8226 23.6157 49.4468 23.6157 49.1461 23.5405V18.7302C49.5971 18.655 50.0481 18.655 50.499 18.655C51.3258 18.655 52.0022 18.8054 52.4532 19.1812C52.9793 19.6321 53.2048 20.2334 53.2048 20.985ZM52.3781 20.985C52.3781 20.3837 52.2277 20.0079 51.9271 19.6321C51.6264 19.3315 51.1755 19.1812 50.5742 19.1812C50.3487 19.1812 50.1232 19.1812 49.9729 19.2563V22.9392C50.0481 22.9392 50.2735 22.9392 50.499 22.9392C51.1003 22.9392 51.5513 22.7889 51.9271 22.4131C52.3029 22.0373 52.3781 21.6615 52.3781 20.985Z" fill="#575A65"/>
<path d="M57.6389 21.7362C57.6389 22.2624 57.4886 22.7133 57.188 23.0891C56.8873 23.465 56.4364 23.6153 55.9102 23.6153C55.3841 23.6153 55.0083 23.465 54.6325 23.0891C54.3318 22.7133 54.1815 22.3375 54.1815 21.8114C54.1815 21.2853 54.3318 20.8343 54.6325 20.4585C54.9331 20.0827 55.3841 19.9324 55.9102 19.9324C56.4364 19.9324 56.8122 20.0827 57.188 20.4585C57.4886 20.8343 57.6389 21.2101 57.6389 21.7362ZM56.8122 21.8114C56.8122 21.5108 56.737 21.2101 56.5867 20.9846C56.4364 20.684 56.2109 20.5337 55.9102 20.5337C55.6096 20.5337 55.3841 20.684 55.1586 20.9846C55.0083 21.2101 54.9331 21.5108 54.9331 21.8114C54.9331 22.1121 55.0083 22.4127 55.1586 22.6382C55.3089 22.9388 55.5344 23.0891 55.9102 23.0891C56.2109 23.0891 56.4364 22.9388 56.5867 22.6382C56.737 22.4127 56.8122 22.1121 56.8122 21.8114Z" fill="#575A65"/>
<path d="M63.5775 20.0076L62.4501 23.5401H61.6985L61.2475 22.0369C61.0972 21.6611 61.0221 21.2853 60.9469 20.9095C60.8717 21.2853 60.7966 21.6611 60.6463 22.0369L60.1953 23.5401H59.4437L58.3914 20.0076H59.2182L59.594 21.6611C59.6692 22.0369 59.7443 22.4127 59.8195 22.7885C59.8946 22.4879 59.9698 22.1121 60.1201 21.6611L60.6463 20.0076H61.3227L61.7737 21.6611C61.924 22.0369 61.9992 22.4879 62.0743 22.8637C62.1495 22.4879 62.2246 22.1121 62.2998 21.6611L62.7508 20.0076H63.5775Z" fill="#575A65"/>
<path d="M67.6365 23.5403H66.8848V21.511C66.8848 20.9097 66.6594 20.609 66.2084 20.609C65.9829 20.609 65.7574 20.6842 65.6071 20.8345C65.4568 20.9848 65.3816 21.2103 65.3816 21.4358V23.5403H64.63V20.9848C64.63 20.6842 64.63 20.3084 64.63 20.0077H65.2313V20.5339C65.3065 20.3836 65.4568 20.2332 65.6071 20.0829C65.8326 19.9326 66.0581 19.8574 66.2836 19.8574C66.5842 19.8574 66.8848 19.9326 67.1103 20.1581C67.411 20.3836 67.4861 20.8345 67.4861 21.3606V23.5403H67.6365Z" fill="#575A65"/>
<path d="M69.8154 23.5404H69.0638V18.4294H69.8154V23.5404Z" fill="#575A65"/>
<path d="M74.477 21.7362C74.477 22.2624 74.3266 22.7133 74.026 23.0891C73.7253 23.465 73.2744 23.6153 72.7482 23.6153C72.2221 23.6153 71.8463 23.465 71.4705 23.0891C71.1699 22.7133 71.0195 22.3375 71.0195 21.8114C71.0195 21.2853 71.1699 20.8343 71.4705 20.4585C71.7711 20.0827 72.2221 19.9324 72.7482 19.9324C73.2744 19.9324 73.6502 20.0827 74.026 20.4585C74.3266 20.8343 74.477 21.2101 74.477 21.7362ZM73.6502 21.8114C73.6502 21.5108 73.575 21.2101 73.4247 20.9846C73.2744 20.684 73.0489 20.5337 72.7482 20.5337C72.4476 20.5337 72.2221 20.684 71.9966 20.9846C71.8463 21.2101 71.7711 21.5108 71.7711 21.8114C71.7711 22.1121 71.8463 22.4127 71.9966 22.6382C72.147 22.9388 72.3724 23.0891 72.7482 23.0891C73.0489 23.0891 73.2744 22.9388 73.4247 22.6382C73.575 22.4127 73.6502 22.1121 73.6502 21.8114Z" fill="#575A65"/>
<path d="M78.2345 23.5401H77.558L77.4828 23.1643C77.2574 23.465 76.8815 23.6153 76.4306 23.6153C76.1299 23.6153 75.8293 23.5401 75.6038 23.3146C75.4535 23.0891 75.3032 22.8637 75.3032 22.563C75.3032 22.1121 75.4535 21.8114 75.8293 21.5859C76.2051 21.3604 76.7312 21.2101 77.3325 21.2853V21.2101C77.3325 20.7591 77.107 20.5337 76.5809 20.5337C76.2051 20.5337 75.9045 20.6088 75.679 20.7591L75.6038 20.233C75.9045 20.0075 76.3554 19.9324 76.8064 19.9324C77.7083 19.9324 78.1593 20.3833 78.1593 21.3604V22.6382C78.2344 23.0891 78.2345 23.3898 78.2345 23.5401ZM77.4077 22.3375V21.8114C76.5057 21.8114 76.1299 22.0369 76.1299 22.4879C76.1299 22.6382 76.2051 22.7885 76.2803 22.9388C76.3554 23.014 76.5057 23.0891 76.6561 23.0891C76.8064 23.0891 76.9567 23.014 77.107 22.9388C77.2574 22.8637 77.3325 22.7133 77.4077 22.4879C77.4077 22.4127 77.4077 22.4127 77.4077 22.3375Z" fill="#575A65"/>
<path d="M82.7435 23.5404H82.067V22.9391C81.8416 23.3901 81.4658 23.6156 80.9396 23.6156C80.4887 23.6156 80.188 23.4653 79.8874 23.0894C79.5867 22.7136 79.4364 22.3378 79.4364 21.8117C79.4364 21.2104 79.5867 20.7594 79.8874 20.3836C80.188 20.083 80.5638 19.8575 81.0148 19.8575C81.4658 19.8575 81.8416 20.0078 81.9919 20.3085V18.4294H82.7435V22.6385C82.6683 22.9391 82.7435 23.2398 82.7435 23.5404ZM81.9167 22.0372V21.4359C81.9167 21.3607 81.9167 21.2856 81.9167 21.2104C81.8416 20.9849 81.7664 20.8346 81.6161 20.7594C81.4658 20.6091 81.3154 20.534 81.0899 20.534C80.7893 20.534 80.5638 20.6843 80.4135 20.9098C80.2632 21.1353 80.188 21.4359 80.188 21.8117C80.188 22.1875 80.2632 22.413 80.4135 22.6385C80.5638 22.864 80.7893 23.0143 81.0899 23.0143C81.3154 23.0143 81.5409 22.9391 81.6912 22.7136C81.8416 22.5633 81.9167 22.3378 81.9167 22.0372Z" fill="#575A65"/>
<path d="M89.4315 21.7362C89.4315 22.2624 89.2812 22.7133 88.9805 23.0891C88.6799 23.465 88.2289 23.6153 87.7028 23.6153C87.1766 23.6153 86.8008 23.465 86.425 23.0891C86.1244 22.7133 85.9741 22.3375 85.9741 21.8114C85.9741 21.2853 86.1244 20.8343 86.425 20.4585C86.7257 20.0827 87.1766 19.9324 87.7028 19.9324C88.2289 19.9324 88.6047 20.0827 88.9805 20.4585C89.2812 20.8343 89.4315 21.2101 89.4315 21.7362ZM88.6799 21.8114C88.6799 21.5108 88.6047 21.2101 88.4544 20.9846C88.3041 20.684 88.0786 20.5337 87.7779 20.5337C87.4773 20.5337 87.2518 20.684 87.0263 20.9846C86.876 21.2101 86.8008 21.5108 86.8008 21.8114C86.8008 22.1121 86.876 22.4127 87.0263 22.6382C87.1766 22.9388 87.4021 23.0891 87.7779 23.0891C88.0786 23.0891 88.3041 22.9388 88.4544 22.6382C88.6047 22.4127 88.6799 22.1121 88.6799 21.8114Z" fill="#575A65"/>
<path d="M93.7162 23.5403H92.9646V21.511C92.9646 20.9097 92.7391 20.609 92.213 20.609C91.9875 20.609 91.762 20.6842 91.6117 20.8345C91.4614 20.9848 91.3862 21.2103 91.3862 21.4358V23.5403H90.6346V20.9848C90.6346 20.6842 90.6346 20.3084 90.6346 20.0077H91.311V20.5339C91.3862 20.3836 91.5365 20.2332 91.6868 20.0829C91.9123 19.9326 92.1378 19.8574 92.4384 19.8574C92.7391 19.8574 93.0397 19.9326 93.2652 20.1581C93.5659 20.3836 93.641 20.8345 93.641 21.3606V23.5403H93.7162Z" fill="#575A65"/>
<path d="M98.9748 20.609H98.0729V22.3377C98.0729 22.7887 98.2232 23.0141 98.5239 23.0141C98.6742 23.0141 98.7494 23.0141 98.8997 23.0141V23.6154C98.7494 23.6906 98.5239 23.6906 98.2984 23.6906C97.9977 23.6906 97.7723 23.6154 97.5468 23.3899C97.3965 23.1645 97.3213 22.8638 97.3213 22.4128V20.609H96.7952V20.0077H97.3213V19.4064L98.0729 19.1809V20.0828H98.9748V20.609Z" fill="#575A65"/>
<path d="M103.187 23.5404H102.435V21.5111C102.435 20.9098 102.21 20.534 101.759 20.534C101.383 20.534 101.157 20.6843 101.007 21.0601C101.007 21.1353 101.007 21.2104 101.007 21.3607V23.4653H100.255V18.4294H101.007V20.534C101.232 20.1582 101.608 19.9327 102.059 19.9327C102.36 19.9327 102.661 20.0078 102.886 20.2333C103.187 20.534 103.262 20.9098 103.262 21.4359C103.187 21.4359 103.187 23.5404 103.187 23.5404Z" fill="#575A65"/>
<path d="M107.471 21.6611C107.471 21.8114 107.471 21.8866 107.471 22.0369H105.066C105.066 22.4127 105.216 22.6382 105.442 22.8637C105.667 23.014 105.893 23.0892 106.193 23.0892C106.569 23.0892 106.87 23.014 107.17 22.9389L107.321 23.465C107.02 23.6153 106.569 23.6905 106.118 23.6905C105.592 23.6905 105.141 23.5401 104.84 23.2395C104.54 22.9389 104.389 22.4879 104.389 21.9618C104.389 21.4356 104.54 20.9847 104.84 20.6089C105.141 20.2331 105.592 20.0076 106.043 20.0076C106.569 20.0076 106.945 20.2331 107.17 20.6089C107.396 20.8343 107.471 21.2101 107.471 21.6611ZM106.719 21.4356C106.719 21.2101 106.644 20.9847 106.569 20.8343C106.419 20.6089 106.193 20.5337 105.968 20.5337C105.742 20.5337 105.517 20.6089 105.367 20.8343C105.216 20.9847 105.141 21.2101 105.141 21.4356C105.066 21.4356 106.719 21.4356 106.719 21.4356Z" fill="#575A65"/>
</svg>
