<svg width="18" height="18" viewBox="0 0 18 18" fill="none" xmlns="http://www.w3.org/2000/svg">
    <path d="M0.0487976 1.32643C0.0487976 0.620096 0.621408 0.0474854 1.32775 0.0474854H16.6751C17.3815 0.0474854 17.9541 0.620096 17.9541 1.32643V3.88433C17.9541 4.59066 17.3815 5.16327 16.6751 5.16327H1.32775C0.621408 5.16327 0.0487976 4.59066 0.0487976 3.88433V1.32643Z" fill="white"/>
    <path d="M0.0487976 9.00014C0.0487976 8.29379 0.621408 7.72119 1.32775 7.72119H9.00143C9.70779 7.72119 10.2804 8.29379 10.2804 9.00014V16.6738C10.2804 17.3802 9.70779 17.9528 9.00143 17.9528H1.32775C0.621408 17.9528 0.0487976 17.3802 0.0487976 16.6738V9.00014Z" fill="white"/>
    <path d="M14.116 7.72119C13.4097 7.72119 12.8371 8.29379 12.8371 9.00014V16.6738C12.8371 17.3802 13.4097 17.9528 14.116 17.9528H16.6739C17.3803 17.9528 17.9529 17.3802 17.9529 16.6738V9.00014C17.9529 8.29379 17.3803 7.72119 16.6739 7.72119H14.116Z" fill="white"/>
</svg>
