<svg width="18" height="25" viewBox="0 0 18 25" fill="none" xmlns="http://www.w3.org/2000/svg">
    <path opacity="0.95" fill-rule="evenodd" clip-rule="evenodd" d="M12.2826 20.3193C14.5244 20.3193 16.3179 19.2731 17.252 17.5918H17.6256C16.7289 21.8886 13.4782 24.6535 9.1067 24.6535C4.09997 24.6535 0.0646973 21.2908 0.0646973 15.1632C0.0646973 8.99817 4.36152 4.92554 9.59243 4.92554C14.5244 4.92554 17.4014 8.28826 17.4014 12.1367H4.88461C5.33297 17.4797 8.54624 20.3193 12.2826 20.3193ZM11.5727 11.24C11.3485 8.17617 10.1155 5.97172 8.02315 5.97172C6.00552 5.97172 4.84724 7.76517 4.84724 10.9037V11.24H11.5727Z" fill="white"/>
    <path opacity="0.95" d="M5.88501 0C6.1011 1.68331 7.50519 2.94539 9.2563 2.94539C11.0074 2.94539 12.4114 1.68331 12.6274 0H5.88501Z" fill="#BC5284"/>
</svg>
