<svg width="133" height="56" viewBox="0 0 133 56" fill="none" xmlns="http://www.w3.org/2000/svg">
<rect width="132.075" height="56" rx="10" fill="white"/>
<path d="M48.4915 21.6105C48.4915 22.239 48.2558 22.7889 47.9416 23.1817C47.4702 23.653 46.9203 23.8887 46.2133 23.8887C45.5063 23.8887 44.9564 23.653 44.4851 23.1817C44.0138 22.7103 43.7781 22.1604 43.7781 21.4534C43.7781 20.7464 44.0138 20.1965 44.4851 19.7252C44.9564 19.2539 45.5063 19.0182 46.2133 19.0182C46.5276 19.0182 46.8418 19.0968 47.156 19.2539C47.4702 19.411 47.7059 19.5681 47.863 19.8038L47.4702 20.1965C47.156 19.8038 46.7632 19.6466 46.1348 19.6466C45.6635 19.6466 45.1921 19.8038 44.8779 20.1965C44.4851 20.5108 44.328 20.9821 44.328 21.532C44.328 22.0819 44.4851 22.5532 44.8779 22.8674C45.2707 23.1817 45.6635 23.4173 46.1348 23.4173C46.6847 23.4173 47.0775 23.2602 47.4702 22.8674C47.7059 22.6318 47.863 22.3176 47.863 21.9248H46.1348V21.3749H48.4129C48.4915 21.3749 48.4915 21.532 48.4915 21.6105Z" fill="#575A65"/>
<path d="M52.1837 19.647H50.0627V21.1396H52.0266V21.6895H50.0627V23.182H52.1837V23.7319H49.4342V19.0971H52.1837V19.647Z" fill="#575A65"/>
<path d="M54.6968 23.7319H54.0684V19.647H52.8115V19.0971H56.0323V19.647H54.6968V23.7319Z" fill="#575A65"/>
<path d="M58.3927 23.7319V19.0971H59.0212V23.7319H58.3927Z" fill="#575A65"/>
<path d="M61.6912 23.7319H61.0627V19.647H59.7273V19.0971H63.0266V19.647H61.6912V23.7319Z" fill="#575A65"/>
<path d="M69.155 23.1817C68.6837 23.653 68.1338 23.8887 67.4268 23.8887C66.7198 23.8887 66.1699 23.653 65.6986 23.1817C65.2272 22.7103 64.9916 22.1604 64.9916 21.4534C64.9916 20.7464 65.2272 20.1965 65.6986 19.7252C66.1699 19.2539 66.7198 19.0182 67.4268 19.0182C68.1338 19.0182 68.6837 19.2539 69.155 19.7252C69.6264 20.1965 69.862 20.7464 69.862 21.4534C69.862 22.0819 69.6264 22.7103 69.155 23.1817ZM66.0914 22.7889C66.4056 23.1031 66.8769 23.3388 67.3483 23.3388C67.8196 23.3388 68.2909 23.1817 68.6052 22.7889C68.9194 22.4747 69.155 22.0033 69.155 21.4534C69.155 20.9035 68.9979 20.4322 68.6052 20.118C68.2909 19.8038 67.8196 19.5681 67.3483 19.5681C66.8769 19.5681 66.4056 19.7252 66.0914 20.118C65.7771 20.4322 65.5415 20.9035 65.5415 21.4534C65.62 22.0033 65.7771 22.3961 66.0914 22.7889Z" fill="#575A65"/>
<path d="M70.7247 23.7319V19.0971H71.4317L73.7098 22.7107V21.8466V19.0971H74.3383V23.7319H73.7098L71.2746 19.9612V20.8254V23.7319H70.7247Z" fill="#575A65"/>
<path d="M64.9908 30.5668C63.1054 30.5668 61.6129 31.9808 61.6129 33.8662C61.6129 35.7515 63.1054 37.1655 64.9908 37.1655C66.8761 37.1655 68.3687 35.7515 68.3687 33.8662C68.3687 31.9808 66.8761 30.5668 64.9908 30.5668ZM64.9908 35.9086C63.9695 35.9086 63.1054 35.0445 63.1054 33.8662C63.1054 32.6878 63.9695 31.8237 64.9908 31.8237C66.012 31.8237 66.8761 32.6093 66.8761 33.8662C66.8761 35.0445 66.012 35.9086 64.9908 35.9086ZM57.6851 30.5668C55.7997 30.5668 54.3071 31.9808 54.3071 33.8662C54.3071 35.7515 55.7997 37.1655 57.6851 37.1655C59.5704 37.1655 61.063 35.7515 61.063 33.8662C60.9844 31.9808 59.4918 30.5668 57.6851 30.5668ZM57.6851 35.9086C56.6638 35.9086 55.7997 35.0445 55.7997 33.8662C55.7997 32.6878 56.6638 31.8237 57.6851 31.8237C58.7063 31.8237 59.5704 32.6093 59.5704 33.8662C59.5704 35.0445 58.7063 35.9086 57.6851 35.9086ZM48.9653 31.5881V33.0021H52.3432C52.2647 33.7876 51.9505 34.3375 51.5577 34.7303C51.0864 35.2016 50.3008 35.7515 48.9653 35.7515C46.8443 35.7515 45.2732 34.1019 45.2732 31.9808C45.2732 29.8598 46.9229 28.2102 48.9653 28.2102C50.0651 28.2102 50.9292 28.6815 51.5577 29.2314L52.5789 28.2102C51.7148 27.4246 50.615 26.7961 49.0439 26.7961C46.1373 26.7961 43.7806 29.0743 43.7806 31.9023C43.7806 34.7303 46.2159 37.0084 49.0439 37.0084C50.615 37.0084 51.7934 36.5371 52.6575 35.5944C53.6001 34.6517 53.9144 33.3948 53.9144 32.2951C53.9144 31.9808 53.9144 31.6666 53.8358 31.4309C53.6787 31.5881 48.9653 31.5881 48.9653 31.5881ZM84.6298 32.6878C84.3156 31.9808 83.53 30.5668 81.7232 30.5668C79.995 30.5668 78.581 31.9023 78.581 33.8662C78.581 35.7515 79.995 37.1655 81.8803 37.1655C83.4514 37.1655 84.3156 36.2229 84.7083 35.673L83.53 34.8874C83.1372 35.4373 82.6659 35.8301 81.8803 35.8301C81.1733 35.8301 80.6234 35.5159 80.2306 34.8089L84.7083 33.0021C84.7869 33.0806 84.6298 32.6878 84.6298 32.6878ZM80.0735 33.7876C80.0735 32.5307 81.0948 31.8237 81.8018 31.8237C82.3517 31.8237 82.9015 32.138 83.0587 32.5307L80.0735 33.7876ZM76.3814 37.0084H77.874V27.2675H76.3814V37.0084ZM74.0247 31.2738C73.6319 30.8811 73.0035 30.5668 72.2179 30.5668C70.5682 30.5668 68.9971 32.0594 68.9971 33.8662C68.9971 35.7515 70.5682 37.1655 72.2179 37.1655C73.0035 37.1655 73.6319 36.8513 73.9462 36.38H74.0247V36.8513C74.0247 38.1082 73.3177 38.8152 72.2179 38.8152C71.3538 38.8152 70.7254 38.1868 70.5682 37.6369L69.3114 38.1868C69.7041 39.0509 70.6468 40.1507 72.2965 40.1507C74.0247 40.1507 75.5173 39.1294 75.5173 36.6942V30.7239H74.1033L74.0247 31.2738ZM72.2965 35.9086C71.2752 35.9086 70.4111 35.0445 70.4111 33.9447C70.4111 32.7664 71.2752 31.9023 72.2965 31.9023C73.3177 31.9023 74.1033 32.7664 74.1033 33.9447C74.1033 35.0445 73.3177 35.9086 72.2965 35.9086ZM91.4641 27.2675H87.9291V37.0084H89.4217V33.3163H91.4641C93.1138 33.3163 94.685 32.138 94.685 30.3312C94.7635 28.4458 93.1138 27.2675 91.4641 27.2675ZM91.5427 31.9808H89.4217V28.6029H91.5427C92.6425 28.6029 93.2709 29.467 93.2709 30.2526C93.2709 31.0382 92.6425 31.9808 91.5427 31.9808ZM100.655 30.5668C99.5554 30.5668 98.4556 31.0382 98.0629 32.0594L99.3983 32.6093C99.7125 32.0594 100.184 31.9023 100.734 31.9023C101.519 31.9023 102.305 32.3736 102.305 33.1592V33.2377C102.069 33.0806 101.441 32.845 100.734 32.845C99.3198 32.845 97.9057 33.6305 97.9057 35.0445C97.9057 36.38 99.0841 37.1655 100.341 37.1655C101.362 37.1655 101.912 36.6942 102.226 36.2229H102.305V37.0084H103.719V33.2377C103.64 31.5095 102.305 30.5668 100.655 30.5668ZM100.42 35.9086C99.9482 35.9086 99.2412 35.673 99.2412 35.1231C99.2412 34.3375 100.105 34.1019 100.812 34.1019C101.441 34.1019 101.755 34.259 102.148 34.4161C102.069 35.2802 101.284 35.9086 100.42 35.9086ZM108.746 30.8025L107.097 35.0445H107.018L105.29 30.8025H103.719L106.311 36.6942L104.819 39.9936H106.39L110.396 30.8025H108.746ZM95.5491 37.0084H97.0416V27.2675H95.5491V37.0084Z" fill="#575A65"/>
<path d="M19.5373 19.6875C19.3032 19.9216 19.1471 20.3117 19.1471 20.7799V37.8676C19.1471 38.3358 19.3032 38.7259 19.5373 38.96L19.6153 39.038L29.2906 29.4408V29.2067L19.5373 19.6875Z" fill="url(#paint0_linear)"/>
<path d="M32.4897 32.6396L29.2906 29.4405V29.2064L32.4897 26.0073L32.5678 26.0853L36.3911 28.2701C37.4834 28.8943 37.4834 29.9086 36.3911 30.5329L32.4897 32.6396C32.5678 32.6396 32.4897 32.6396 32.4897 32.6396Z" fill="url(#paint1_linear)"/>
<path d="M32.5679 32.6394L29.2907 29.3623L19.5374 38.9595C19.9276 39.3497 20.4738 39.3497 21.176 39.0376L32.5679 32.6394Z" fill="url(#paint2_linear)"/>
<path d="M32.5679 26.0856L21.176 19.6874C20.4738 19.2973 19.9276 19.3753 19.5374 19.7654L29.2907 29.3627L32.5679 26.0856Z" fill="url(#paint3_linear)"/>
<defs>
<linearGradient id="paint0_linear" x1="28.4169" y1="38.0401" x2="15.4449" y2="24.9148" gradientUnits="userSpaceOnUse">
<stop stop-color="#00A0FF"/>
<stop offset="0.0066" stop-color="#00A1FF"/>
<stop offset="0.2601" stop-color="#00BEFF"/>
<stop offset="0.5122" stop-color="#00D2FF"/>
<stop offset="0.7604" stop-color="#00DFFF"/>
<stop offset="1" stop-color="#00E3FF"/>
</linearGradient>
<linearGradient id="paint1_linear" x1="37.8077" y1="29.3234" x2="18.8824" y2="29.3234" gradientUnits="userSpaceOnUse">
<stop stop-color="#FFE000"/>
<stop offset="0.4087" stop-color="#FFBD00"/>
<stop offset="0.7754" stop-color="#FFA500"/>
<stop offset="1" stop-color="#FF9C00"/>
</linearGradient>
<linearGradient id="paint2_linear" x1="24.2485" y1="33.9972" x2="6.65735" y2="16.1984" gradientUnits="userSpaceOnUse">
<stop stop-color="#FF3A44"/>
<stop offset="1" stop-color="#C31162"/>
</linearGradient>
<linearGradient id="paint3_linear" x1="10.5673" y1="38.249" x2="18.4226" y2="30.301" gradientUnits="userSpaceOnUse">
<stop stop-color="#32A071"/>
<stop offset="0.0685" stop-color="#2DA771"/>
<stop offset="0.4762" stop-color="#15CF74"/>
<stop offset="0.8009" stop-color="#06E775"/>
<stop offset="1" stop-color="#00F076"/>
</linearGradient>
</defs>
</svg>
