<svg width="25" height="25" viewBox="0 0 25 25" fill="none" xmlns="http://www.w3.org/2000/svg">
    <path d="M24.2942 0.727665C23.669 0.0846809 22.7436 -0.153135 21.8807 0.098522L1.76 5.94829C0.849623 6.20247 0.204359 6.9285 0.0305377 7.84956C-0.147035 8.78824 0.473219 9.9811 1.28355 10.4794L7.57488 14.3448C8.22014 14.7425 9.05298 14.643 9.58695 14.1045L16.7911 6.85552C17.1538 6.47677 17.754 6.47677 18.1167 6.85552C18.4793 7.21916 18.4793 7.81181 18.1167 8.1893L10.9 15.4383C10.3648 15.9768 10.2647 16.8123 10.6586 17.4629L14.5027 23.8172C14.9529 24.5709 15.7282 25 16.5786 25C16.6786 25 16.7911 25 16.8912 24.9862C17.8666 24.8616 18.6419 24.1934 18.9295 23.2497L24.8945 3.15616C25.1571 2.30052 24.9195 1.36939 24.2942 0.727665Z" fill="white"/>
</svg>
