<svg width="12" height="20" viewBox="0 0 12 20" fill="none" xmlns="http://www.w3.org/2000/svg">
    <path d="M11.2408 0.00416134L8.64722 0C5.73346 0 3.85046 1.9319 3.85046 4.92203V7.19141H1.24277C1.01744 7.19141 0.834961 7.37409 0.834961 7.59943V10.8875C0.834961 11.1128 1.01764 11.2953 1.24277 11.2953H3.85046V19.5922C3.85046 19.8175 4.03294 20 4.25827 20H7.66057C7.8859 20 8.06838 19.8173 8.06838 19.5922V11.2953H11.1174C11.3427 11.2953 11.5252 11.1128 11.5252 10.8875L11.5264 7.59943C11.5264 7.49123 11.4834 7.38762 11.407 7.31105C11.3306 7.23448 11.2266 7.19141 11.1184 7.19141H8.06838V5.26763C8.06838 4.34298 8.28872 3.87358 9.49321 3.87358L11.2403 3.87295C11.4655 3.87295 11.6479 3.69027 11.6479 3.46514V0.411972C11.6479 0.187052 11.4657 0.00457747 11.2408 0.00416134Z" fill="white"/>
</svg>
