<svg width="19" height="19" viewBox="0 0 19 19" fill="none" xmlns="http://www.w3.org/2000/svg">
    <path d="M9.37587 7.05066C8.91599 7.05066 8.46643 7.18703 8.08405 7.44253C7.70167 7.69802 7.40364 8.06117 7.22765 8.48605C7.05166 8.91093 7.00562 9.37845 7.09534 9.8295C7.18505 10.2805 7.40651 10.6949 7.7317 11.02C8.05688 11.3452 8.4712 11.5667 8.92225 11.6564C9.37329 11.7461 9.84082 11.7001 10.2657 11.5241C10.6906 11.3481 11.0537 11.0501 11.3092 10.6677C11.5647 10.2853 11.7011 9.83576 11.7011 9.37587C11.7011 9.07052 11.6409 8.76816 11.5241 8.48605C11.4072 8.20394 11.236 7.94761 11.02 7.7317C10.8041 7.51578 10.5478 7.34451 10.2657 7.22765C9.98359 7.1108 9.68122 7.05066 9.37587 7.05066ZM18.6861 4.75357C18.6812 4.02952 18.5479 3.31209 18.2923 2.63462C18.1041 2.13888 17.813 1.68868 17.438 1.31373C17.0631 0.938784 16.6129 0.647608 16.1171 0.459418C15.4397 0.203891 14.7222 0.0705637 13.9982 0.065631C12.7887 -6.28701e-08 12.4324 0 9.37587 0C6.31934 0 5.96306 -6.28701e-08 4.75357 0.065631C4.02952 0.0705637 3.31209 0.203891 2.63462 0.459418C2.13888 0.647608 1.68868 0.938784 1.31373 1.31373C0.938784 1.68868 0.647608 2.13888 0.459418 2.63462C0.203891 3.31209 0.0705637 4.02952 0.065631 4.75357C-6.28701e-08 5.96306 0 6.31934 0 9.37587C0 12.4324 -6.28701e-08 12.7887 0.065631 13.9982C0.0757232 14.7248 0.20887 15.4444 0.459418 16.1265C0.646774 16.62 0.937708 17.0676 1.31262 17.4391C1.68596 17.8163 2.13713 18.1075 2.63462 18.2923C3.31209 18.5479 4.02952 18.6812 4.75357 18.6861C5.96306 18.7517 6.31934 18.7517 9.37587 18.7517C12.4324 18.7517 12.7887 18.7517 13.9982 18.6861C14.7222 18.6812 15.4397 18.5479 16.1171 18.2923C16.6146 18.1075 17.0658 17.8163 17.4391 17.4391C17.814 17.0676 18.105 16.62 18.2923 16.1265C18.5476 15.4457 18.6809 14.7252 18.6861 13.9982C18.7517 12.7887 18.7517 12.4324 18.7517 9.37587C18.7517 6.31934 18.7517 5.96306 18.6861 4.75357ZM16.3046 12.2543C16.2746 12.8329 16.1511 13.4028 15.939 13.9419C15.757 14.3917 15.4864 14.8002 15.1433 15.1433C14.8002 15.4864 14.3917 15.757 13.9419 15.939C13.3977 16.1392 12.8246 16.2501 12.2449 16.2671C11.5042 16.2671 11.3073 16.2671 9.37587 16.2671C7.44444 16.2671 7.24755 16.2671 6.50686 16.2671C5.92717 16.2501 5.35408 16.1392 4.80982 15.939C4.34488 15.7662 3.925 15.4906 3.58158 15.1327C3.24186 14.7963 2.97951 14.39 2.81276 13.9419C2.6117 13.3982 2.50393 12.8245 2.49398 12.2449C2.49398 11.5042 2.49398 11.3073 2.49398 9.37587C2.49398 7.44444 2.49398 7.24755 2.49398 6.50686C2.50393 5.92726 2.6117 5.35352 2.81276 4.80982C2.98554 4.34488 3.26119 3.925 3.61909 3.58158C3.95693 3.2437 4.36284 2.98162 4.80982 2.81276C5.35408 2.6125 5.92717 2.50168 6.50686 2.48461C7.24755 2.48461 7.44444 2.48461 9.37587 2.48461C11.3073 2.48461 11.5042 2.48461 12.2449 2.48461C12.8246 2.50168 13.3977 2.6125 13.9419 2.81276C14.4069 2.98554 14.8267 3.26119 15.1702 3.61909C15.5099 3.95545 15.7722 4.36178 15.939 4.80982C16.1392 5.35408 16.2501 5.92717 16.2671 6.50686C16.2671 7.24755 16.2671 7.44444 16.2671 9.37587C16.2671 11.3073 16.3328 11.5042 16.3046 12.2449V12.2543ZM14.8045 5.27862C14.6929 4.97576 14.5169 4.70073 14.2886 4.47249C14.0604 4.24426 13.7854 4.06825 13.4825 3.95662C13.0667 3.81247 12.6287 3.74265 12.1886 3.75035C11.4573 3.75035 11.251 3.75035 9.37587 3.75035C7.5007 3.75035 7.29443 3.75035 6.56311 3.75035C6.12082 3.75467 5.68278 3.8372 5.26924 3.99412C4.97102 4.10068 4.6989 4.2695 4.47096 4.48936C4.24303 4.70921 4.0645 4.97506 3.94724 5.26924C3.81108 5.68681 3.74456 6.12394 3.75035 6.56311C3.75035 7.29443 3.75035 7.5007 3.75035 9.37587C3.75035 11.251 3.75035 11.4573 3.75035 12.1886C3.75964 12.6304 3.84202 13.0676 3.99412 13.4825C4.10575 13.7854 4.28176 14.0604 4.50999 14.2886C4.73823 14.5169 5.01326 14.6929 5.31612 14.8045C5.71616 14.9516 6.13712 15.0339 6.56311 15.0483C7.29443 15.0483 7.5007 15.0483 9.37587 15.0483C11.251 15.0483 11.4573 15.0483 12.1886 15.0483C12.6309 15.044 13.069 14.9614 13.4825 14.8045C13.7854 14.6929 14.0604 14.5169 14.2886 14.2886C14.5169 14.0604 14.6929 13.7854 14.8045 13.4825C14.9614 13.069 15.044 12.6309 15.0483 12.1886C15.0483 11.4573 15.0483 11.251 15.0483 9.37587C15.0483 7.5007 15.0483 7.29443 15.0483 6.56311C15.0485 6.12038 14.9659 5.68152 14.8045 5.26924V5.27862ZM9.37587 12.9575C8.90597 12.9575 8.44069 12.8647 8.00668 12.6846C7.57267 12.5045 7.17845 12.2406 6.84662 11.9079C6.51479 11.5752 6.25186 11.1803 6.07289 10.7458C5.89392 10.3113 5.80243 9.84577 5.80366 9.37587C5.80367 8.6671 6.01396 7.97427 6.40793 7.38508C6.80189 6.79589 7.36181 6.33684 8.01681 6.06603C8.67181 5.79523 9.39242 5.72485 10.0874 5.86381C10.7824 6.00277 11.4206 6.34481 11.9211 6.84664C12.4216 7.34848 12.762 7.98753 12.8992 8.68291C13.0363 9.37828 12.964 10.0987 12.6915 10.753C12.419 11.4073 11.9585 11.966 11.3682 12.3584C10.778 12.7508 10.0846 12.9593 9.37587 12.9575ZM13.1262 6.49748C12.919 6.47554 12.7272 6.37768 12.5878 6.22274C12.4483 6.0678 12.3712 5.86676 12.3712 5.65834C12.3712 5.44992 12.4483 5.24888 12.5878 5.09394C12.7272 4.939 12.919 4.84114 13.1262 4.8192C13.3335 4.84114 13.5253 4.939 13.6647 5.09394C13.8041 5.24888 13.8812 5.44992 13.8812 5.65834C13.8812 5.86676 13.8041 6.0678 13.6647 6.22274C13.5253 6.37768 13.3335 6.47554 13.1262 6.49748Z" fill="white"/>
</svg>
