<svg width="24" height="19" viewBox="0 0 24 19" fill="none" xmlns="http://www.w3.org/2000/svg">
    <path d="M23.0887 2.22085C22.2301 2.59748 21.3152 2.84713 20.3614 2.96835C21.3427 2.38247 22.0916 1.46181 22.4437 0.352103C21.5288 0.897575 20.5187 1.28287 19.4422 1.49788C18.5734 0.57289 17.3353 0 15.9846 0C13.3641 0 11.2543 2.12705 11.2543 4.73464C11.2543 5.10983 11.2861 5.47059 11.364 5.81403C7.4288 5.62211 3.94673 3.73605 1.60755 0.862942C1.19917 1.57148 0.959626 2.38247 0.959626 3.25551C0.959626 4.89481 1.80381 6.34796 3.06214 7.18926C2.30166 7.17483 1.5556 6.95404 0.92355 6.60627C0.92355 6.6207 0.92355 6.63946 0.92355 6.65822C0.92355 8.95843 2.56429 10.869 4.71587 11.3092C4.33058 11.4145 3.91066 11.465 3.47486 11.465C3.17182 11.465 2.86589 11.4477 2.57872 11.3842C3.19202 13.2587 4.93233 14.6368 7.00166 14.6816C5.39122 15.9413 3.34642 16.7004 1.13279 16.7004C0.744612 16.7004 0.372306 16.6831 0 16.6354C2.09675 17.9876 4.58167 18.7596 7.26141 18.7596C15.9716 18.7596 20.7337 11.5444 20.7337 5.29021C20.7337 5.08097 20.7265 4.87894 20.7164 4.67836C21.6558 4.01167 22.4451 3.17903 23.0887 2.22085Z" fill="white"/>
</svg>
